<?xml version="1.0" encoding="utf-8"?>
<svg xmlns="http://www.w3.org/2000/svg" viewBox="0 0 500 500">
  <ellipse style="stroke: rgb(0, 0, 0); fill: none; stroke-width: 20px;" cx="250" cy="250" rx="141.518" ry="141.518"/>
  <line style="fill: rgb(216, 216, 216); stroke: rgb(0, 0, 0); stroke-width: 10px; transform-box: fill-box; transform-origin: 50% 50%;" x1="249.279" y1="107.281" x2="249.279" y2="392.239" transform="matrix(0, 1, -1, 0, -0.000005, 0.000001)"/>
  <line style="fill: rgb(216, 216, 216); stroke: rgb(0, 0, 0); stroke-width: 10px; transform-box: fill-box; transform-origin: 50% 50%;" x1="249.279" y1="152.931" x2="249.759" y2="426.839" transform="matrix(0, 1, -1, 0, -0.000021, 0.000015)"/>
  <line style="fill: rgb(216, 216, 216); stroke: rgb(0, 0, 0); stroke-width: 10px; transform-box: fill-box; transform-origin: 50% 50%;" x1="248.559" y1="211.796" x2="251.442" y2="448.223" transform="matrix(0, 1, -1, 0, -0.000023, -0.000003)"/>
  <line style="fill: rgb(216, 216, 216); stroke: rgb(0, 0, 0); stroke-width: 10px; transform-box: fill-box; transform-origin: 50% 50%;" x1="254.058" y1="281.688" x2="254.058" y2="450.413" transform="matrix(0, 1, -1, 0, 0.000033, 0.000022)"/>
  <line style="fill: rgb(216, 216, 216); stroke: rgb(0, 0, 0); stroke-width: 10; transform-box: fill-box; transform-origin: 48202.8% -2.63134%;" x1="-129.38" y1="260.328" x2="-128.9" y2="-13.58" transform="matrix(0, -1, 1, 0, -0.000003, 0)"/>
  <line style="fill: rgb(216, 216, 216); stroke: rgb(0, 0, 0); stroke-width: 10; transform-box: fill-box; transform-origin: 6675.55% -11.1787%;" x1="-90.261" y1="241.873" x2="-87.381" y2="5.446" transform="matrix(0, -1, 1, 0, 0.000007, 0.000003)"/>
  <line style="fill: rgb(216, 216, 216); stroke: rgb(0, 0, 0); stroke-width: 10; transform-box: fill-box; transform-origin: 0% 138.132%;" x1="101.994" y1="-98.872" x2="101.994" y2="69.853" transform="matrix(0, 1, -1, 0, 0.000004, 0.000005)"/>
</svg>